<svg width="18" height="19" viewBox="0 0 18 19" fill="none" xmlns="http://www.w3.org/2000/svg">
<path d="M8.96323 14.001C9.22573 14.001 9.44761 13.9104 9.62886 13.7291C9.81011 13.5479 9.90073 13.326 9.90073 13.0635C9.90073 12.801 9.81011 12.5791 9.62886 12.3979C9.44761 12.2166 9.22573 12.126 8.96323 12.126C8.70073 12.126 8.47886 12.2166 8.29761 12.3979C8.11636 12.5791 8.02573 12.801 8.02573 13.0635C8.02573 13.326 8.11636 13.5479 8.29761 13.7291C8.47886 13.9104 8.70073 14.001 8.96323 14.001ZM9.00073 17.001C7.96323 17.001 6.98823 16.8041 6.07573 16.4104C5.16323 16.0166 4.36948 15.4822 3.69448 14.8072C3.01948 14.1322 2.48511 13.3385 2.09136 12.426C1.69761 11.5135 1.50073 10.5385 1.50073 9.50098C1.50073 8.46348 1.69761 7.48848 2.09136 6.57598C2.48511 5.66348 3.01948 4.86973 3.69448 4.19473C4.36948 3.51973 5.16323 2.98535 6.07573 2.5916C6.98823 2.19785 7.96323 2.00098 9.00073 2.00098C10.0382 2.00098 11.0132 2.19785 11.9257 2.5916C12.8382 2.98535 13.632 3.51973 14.307 4.19473C14.982 4.86973 15.5164 5.66348 15.9101 6.57598C16.3039 7.48848 16.5007 8.46348 16.5007 9.50098C16.5007 10.5385 16.3039 11.5135 15.9101 12.426C15.5164 13.3385 14.982 14.1322 14.307 14.8072C13.632 15.4822 12.8382 16.0166 11.9257 16.4104C11.0132 16.8041 10.0382 17.001 9.00073 17.001ZM9.07573 6.27598C9.38823 6.27598 9.66011 6.37598 9.89136 6.57598C10.1226 6.77598 10.2382 7.02598 10.2382 7.32598C10.2382 7.60098 10.1539 7.84473 9.98511 8.05723C9.81636 8.26973 9.62573 8.46973 9.41323 8.65723C9.12573 8.90723 8.87261 9.18223 8.65386 9.48223C8.43511 9.78223 8.32573 10.1197 8.32573 10.4947C8.32573 10.6697 8.39136 10.8166 8.52261 10.9354C8.65386 11.0541 8.80698 11.1135 8.98198 11.1135C9.16948 11.1135 9.32886 11.051 9.46011 10.926C9.59136 10.801 9.67573 10.6447 9.71323 10.4572C9.76323 10.1947 9.87573 9.96035 10.0507 9.7541C10.2257 9.54785 10.4132 9.35098 10.6132 9.16348C10.9007 8.88848 11.1476 8.58848 11.3539 8.26348C11.5601 7.93848 11.6632 7.57598 11.6632 7.17598C11.6632 6.53848 11.4039 6.0166 10.8851 5.61035C10.3664 5.2041 9.76323 5.00098 9.07573 5.00098C8.60073 5.00098 8.14761 5.10098 7.71636 5.30098C7.28511 5.50098 6.95698 5.80723 6.73198 6.21973C6.64448 6.36973 6.61636 6.5291 6.64761 6.69785C6.67886 6.8666 6.76323 6.99473 6.90073 7.08223C7.07573 7.18223 7.25698 7.21348 7.44448 7.17598C7.63198 7.13848 7.78823 7.03223 7.91323 6.85723C8.05073 6.66973 8.22261 6.52598 8.42886 6.42598C8.63511 6.32598 8.85073 6.27598 9.07573 6.27598Z" fill="#6E7582"/>
</svg>
