<svg width="60" height="60" viewBox="0 0 60 60" fill="none" xmlns="http://www.w3.org/2000/svg">
<path d="M14.375 48.7501C10.9028 48.7501 7.9514 47.524 5.52084 45.0717C3.09028 42.6194 1.875 39.6572 1.875 36.185C1.875 32.7995 2.99262 29.8807 5.22787 27.4284C7.46312 24.9762 10.2301 23.75 13.5287 23.75C14.5269 20.0174 16.556 17.0009 19.6159 14.7005C22.6758 12.4002 26.1372 11.25 30.0001 11.25C34.6442 11.25 38.6698 12.7365 42.0769 15.7096C45.484 18.6827 47.1876 22.4045 47.1876 26.875C50.2258 26.875 52.8083 27.9384 54.935 30.0651C57.0618 32.1919 58.1251 34.7527 58.1251 37.7475C58.1251 40.7857 57.0618 43.379 54.935 45.5274C52.8083 47.6759 50.2258 48.7501 47.1876 48.7501H32.3438V32.7344L34.4272 34.8178C34.9046 35.2952 35.458 35.5339 36.0873 35.5339C36.7167 35.5339 37.27 35.2952 37.7475 34.8178C38.2249 34.3403 38.4636 33.7869 38.4636 33.1576C38.4636 32.5283 38.2249 31.9749 37.7475 31.4974L31.6277 25.3776C31.1502 24.9002 30.6077 24.6615 30.0001 24.6615C29.3924 24.6615 28.8499 24.9002 28.3725 25.3776L22.2527 31.4974C21.7752 31.9749 21.5474 32.5174 21.5691 33.1251C21.5908 33.7327 21.8403 34.2752 22.3178 34.7527C22.7952 35.2301 23.3486 35.4688 23.9779 35.4688C24.6073 35.4688 25.1606 35.2301 25.6381 34.7527L27.6563 32.7344V48.7501H14.375Z" fill="#FFB0DA"/>
</svg>
